<svg viewBox="0 0 243 63" fill="none" xmlns="http://www.w3.org/2000/svg" class="site-branding__logo"><style>.color-blue{fill:#2EA6DF;}.color-magenta{fill:#EF49C1;}</style>
<g clip-path="url(#clip0_1_692)">
<path d="M68.9774 62.4134C67.7395 61.6981 67.1206 60.3962 67.1206 58.5363V58.0284C67.3877 55.5132 68.246 53.098 69.6247 50.9823C70.456 49.5688 71.4081 48.2309 72.4703 46.9836C73.3182 45.9336 74.2718 44.9747 75.3159 44.1222C75.7397 43.7949 76.1894 43.5031 76.6605 43.2495C76.9852 43.0912 77.3386 43.0012 77.6991 42.9849H77.7489C77.9567 42.9882 78.1618 43.0328 78.3522 43.1163C78.5427 43.1998 78.7149 43.3204 78.8587 43.4712C79.0086 43.6228 79.1229 43.8062 79.1931 44.008C79.2632 44.2098 79.2875 44.4248 79.2642 44.6373C79.2345 45.0093 79.1531 45.3753 79.0223 45.7246C78.8658 46.2253 78.6666 46.769 78.4248 47.3484C78.0833 48.2211 77.7134 49.0581 77.315 49.8664C77.1197 50.3787 76.8163 50.8424 76.4257 51.2255C76.1625 51.3829 76.0771 51.2613 76.1554 50.8607C76.3546 50.1251 76.6139 49.4073 76.9308 48.7147C77.7347 46.8405 78.0833 45.653 77.9908 45.138C77.8983 44.6229 77.3434 44.7947 76.3475 45.6459C75.8945 46.0428 75.4624 46.463 75.0527 46.9049C74.5974 47.3913 74.1564 47.9135 73.7224 48.4786C72.9036 49.539 72.1482 50.6473 71.4601 51.7978C70.8355 52.8414 70.3023 53.9376 69.8666 55.074C69.5004 56.0431 69.2891 57.0644 69.2406 58.0999C69.1434 58.8138 69.2887 59.5397 69.6532 60.1601C70.0871 60.6894 70.8626 60.8254 71.9866 60.5464C73.6083 60.0384 75.156 59.3168 76.5893 58.4004C77.3007 57.9998 77.8841 57.685 78.3963 57.4061C78.9085 57.1271 79.2073 57.0341 79.2429 57.0699C79.2784 57.1056 79.314 57.1271 79.314 57.1915C79.2501 57.5079 79.0999 57.8002 78.88 58.0356C78.4031 58.6498 77.8799 59.2261 77.315 59.7596C76.9735 60.0815 76.6036 60.3891 76.255 60.6752C75.9259 60.9379 75.5788 61.1769 75.2163 61.3905C74.4738 61.8531 73.672 62.2117 72.8331 62.4564C72.184 62.7069 71.4999 62.8541 70.8057 62.8927H70.6918C70.4265 62.878 70.165 62.8225 69.9164 62.7282C69.5982 62.6399 69.2847 62.5348 68.9774 62.4134Z" class="color-magenta"/>
<path d="M82.5438 53.1139C82.7821 53.2476 82.9891 53.4311 83.1511 53.6519C83.313 53.8728 83.4261 54.1259 83.4828 54.3943C83.5188 54.7559 83.5188 55.1201 83.4828 55.4817C84.083 55.554 84.6896 55.554 85.2898 55.4817C86.1719 55.4173 87.2034 55.3099 88.3773 55.1669C89.5511 55.0238 90.5115 54.9166 91.294 54.8522C91.7161 54.7881 92.1453 54.7881 92.5674 54.8522C92.5674 54.9022 92.5176 54.9595 92.4251 55.0238C92.2804 55.1238 92.1282 55.2122 91.9698 55.2885C91.4685 55.5298 90.953 55.7401 90.4261 55.918C89.8001 56.1326 89.174 56.3186 88.548 56.476C88.2706 56.5404 87.9504 56.6047 87.5805 56.6691C87.2106 56.7335 86.8691 56.7908 86.4494 56.8408C85.738 56.9195 85.0266 56.9767 84.3152 57.0125C83.8952 57.056 83.4709 57.022 83.0631 56.9124C82.9706 57.0268 82.8497 57.1913 82.7074 57.3987C82.5793 57.6051 82.4237 57.7928 82.245 57.9567C81.8692 58.3501 81.3949 58.6343 80.872 58.7794C80.7419 58.8262 80.6047 58.8504 80.4665 58.8509C80.1668 58.8544 79.8751 58.7533 79.6413 58.5647C79.3008 58.2466 79.0882 57.8139 79.0437 57.3487C79.0089 57.1504 78.9922 56.9492 78.9939 56.7478C78.9932 56.3926 79.0509 56.0397 79.1646 55.7034C79.3597 55.1836 79.5977 54.6811 79.876 54.2012C80.133 53.6922 80.5244 53.264 81.0072 52.9637C81.2233 52.8376 81.4687 52.771 81.7186 52.7705H81.7612C82.0542 52.7886 82.3314 52.9102 82.5438 53.1139ZM80.2602 57.4489C80.3408 57.5134 80.4419 57.5464 80.5448 57.5419C80.6341 57.5405 80.7228 57.526 80.808 57.4989C81.0434 57.4079 81.2516 57.2577 81.4126 57.0625C81.5122 56.9481 81.6118 56.8193 81.7257 56.6691C81.8004 56.579 81.8496 56.4703 81.868 56.3544C81.6445 56.2151 81.4349 56.0545 81.2419 55.8751C80.9619 55.6221 80.7346 55.3157 80.5732 54.9737C80.2839 55.3508 80.1153 55.8073 80.0895 56.2829C80.0895 56.4617 80.0895 56.6191 80.0895 56.7478C80.0688 56.8702 80.0732 56.9955 80.1026 57.1161C80.132 57.2366 80.1856 57.3499 80.2602 57.4489ZM81.3629 53.8722C81.4274 54.1462 81.5709 54.3951 81.7755 54.5875C81.9599 54.8058 82.1909 54.9794 82.4513 55.0954C82.5404 54.9672 82.5899 54.8154 82.5936 54.659C82.586 54.4882 82.5179 54.3258 82.4015 54.2012C82.3178 54.0803 82.206 53.9819 82.0758 53.9146C81.9456 53.8473 81.801 53.813 81.6545 53.8149H81.5123H81.434L81.3629 53.8722Z" class="color-magenta"/>
<path d="M89.6364 61.2759C89.5379 61.2318 89.4537 61.1608 89.3934 61.0711C89.333 60.9813 89.2989 60.8764 89.2949 60.7681C89.3214 60.6034 89.3793 60.4455 89.4657 60.3031C90.1125 59.4309 90.8467 58.6279 91.6568 57.9067C92.297 57.2629 92.8377 56.6978 93.2716 56.2113C93.7056 55.7249 93.8977 55.496 93.8479 55.4102C93.7325 55.3545 93.6106 55.3136 93.4851 55.2885C93.2647 55.2411 93.0412 55.21 92.8164 55.1955C92.5929 55.1772 92.3728 55.1291 92.1619 55.0525C92.1067 55.0313 92.0591 54.9942 92.0249 54.9458C91.9907 54.8974 91.9715 54.84 91.9698 54.7807C91.9698 54.6662 92.0836 54.5804 92.3113 54.516C92.7469 54.4265 93.1899 54.3785 93.6345 54.3729C94.14 54.365 94.6422 54.2905 95.1284 54.1512C95.4624 54.022 95.7601 53.8133 95.9963 53.5431C96.4433 53.1484 96.8252 52.6849 97.1274 52.1697C97.3337 51.7762 97.3551 51.5044 97.1772 51.3398C96.9994 51.1753 96.5156 51.1753 95.7544 51.3398C94.9065 51.5001 94.0753 51.7396 93.2716 52.0552C92.7911 52.2778 92.2909 52.455 91.7777 52.5845C91.5216 52.6179 91.3936 52.5535 91.3936 52.3914C91.3936 52.2483 91.6923 52.0408 92.2899 51.7619C92.9189 51.4543 93.5706 51.196 94.2392 50.9893C94.6809 50.8314 95.1324 50.7023 95.5908 50.603C95.9433 50.5032 96.3062 50.4456 96.6721 50.4313C97.0791 50.4224 97.4774 50.5509 97.8033 50.7962C97.9498 50.8736 98.0736 50.9884 98.1622 51.129C98.2508 51.2695 98.3012 51.431 98.3083 51.5974C98.2942 52.0575 98.1877 52.5101 97.9954 52.9279C97.7757 53.3758 97.5187 53.8042 97.227 54.2084C97.227 54.2084 97.3337 54.2871 97.54 54.33C97.7738 54.3883 98.0116 54.4289 98.2514 54.4516C99.347 54.6018 99.845 54.752 99.7454 54.9165C99.6458 55.0811 98.9913 55.1956 97.725 55.3243C97.2258 55.341 96.7308 55.4228 96.2524 55.5675C95.9114 55.7718 95.616 56.0445 95.3845 56.3687C95.0924 56.6648 94.8519 57.0081 94.6731 57.3844C94.6731 57.5633 94.7941 57.6134 95.1284 57.5275C95.2565 57.5275 95.7402 57.3988 96.5512 57.2414L99.3968 56.7335L101.104 56.4402L102.427 56.1755C103.187 56.0235 103.936 55.8204 104.668 55.5675C105.23 55.3601 105.935 55.0525 106.767 54.6447C106.833 54.6004 106.91 54.5733 106.989 54.5658C107.069 54.5583 107.149 54.5707 107.222 54.6018C107.252 54.6123 107.277 54.6316 107.295 54.6573C107.313 54.6829 107.322 54.7136 107.322 54.7449C107.268 54.8826 107.186 55.0071 107.08 55.1097C106.686 55.5437 106.218 55.9045 105.7 56.1755C105.043 56.5184 104.368 56.8265 103.679 57.0984C103.288 57.2629 102.527 57.5133 101.389 57.8137C100.25 58.1141 99.0624 58.479 97.8317 58.7794C96.601 59.0798 95.3276 59.4947 94.168 59.8452C93.3259 60.0925 92.4971 60.3837 91.6852 60.7179C91.3153 60.8825 90.9738 61.0613 90.6252 61.2544C90.4703 61.3624 90.2872 61.4221 90.0988 61.4261C89.9374 61.4023 89.7812 61.3515 89.6364 61.2759Z" class="color-magenta"/>
<path d="M113.226 58.8009C112.852 58.497 112.6 58.0678 112.515 57.5919C112.339 57.0277 112.298 56.4298 112.394 55.8465C112.44 55.6571 112.457 55.4616 112.444 55.267C112.444 55.1025 112.394 55.0238 112.344 55.0238C112.201 55.0771 112.07 55.1599 111.96 55.267C111.728 55.4692 111.509 55.6867 111.306 55.918C110.764 56.4826 110.158 56.9797 109.499 57.3987C109.074 57.7388 108.569 57.963 108.033 58.0497C107.846 58.0517 107.661 58.0093 107.493 57.9261C107.325 57.8428 107.178 57.721 107.066 57.5704C106.804 57.2124 106.669 56.7769 106.682 56.3329C106.688 56.0574 106.712 55.7826 106.753 55.5102C106.817 55.2026 106.902 54.8807 106.995 54.5374C107.131 54.0687 107.292 53.6078 107.478 53.1568C107.656 52.7419 107.798 52.513 107.912 52.4415C108.218 52.3127 108.403 52.3771 108.467 52.6418C108.515 53.0674 108.464 53.4984 108.318 53.9007C108.134 54.439 108.021 54.9995 107.983 55.5675C107.983 56.0253 108.033 56.2829 108.176 56.3973C108.318 56.5118 108.787 56.1469 109.598 55.403C110.496 54.5355 111.339 53.6134 112.124 52.6418C112.52 52.154 112.948 51.6928 113.404 51.2611C113.603 51.0503 113.866 50.9119 114.151 50.8677C114.237 50.8545 114.324 50.8586 114.408 50.8795C114.492 50.9005 114.571 50.938 114.641 50.9899C114.71 51.0418 114.769 51.1071 114.813 51.1819C114.857 51.2566 114.886 51.3395 114.898 51.4257C114.893 52.1894 114.778 52.9483 114.557 53.679C114.26 54.6779 114.1 55.7127 114.08 56.755C114.072 56.8706 114.09 56.9865 114.131 57.0948C114.172 57.203 114.236 57.3009 114.319 57.3819C114.401 57.4628 114.5 57.5248 114.609 57.5635C114.718 57.6022 114.833 57.6168 114.948 57.6062C115.36 57.4954 115.756 57.3344 116.129 57.1269C116.84 56.8193 117.594 56.4116 118.448 55.9895C119.302 55.5675 120.056 55.1454 120.689 54.8235C121.018 54.6534 121.355 54.5006 121.699 54.3657C121.749 54.3657 121.77 54.3657 121.77 54.4087C121.77 54.4516 121.593 54.7233 121.237 55.0667C120.639 55.6242 120.012 56.1495 119.359 56.6405C118.861 57.0268 118.363 57.3987 117.865 57.7564C117.353 58.0926 116.904 58.3716 116.52 58.5791C115.964 58.8884 115.347 59.0715 114.713 59.1156H114.443C114.015 59.1408 113.589 59.0308 113.226 58.8009Z" class="color-magenta"/>
<path d="M119.785 60.5035C119.683 60.3993 119.606 60.2727 119.561 60.1337C119.515 59.9948 119.502 59.8472 119.522 59.7023C119.522 59.5735 119.522 59.4375 119.522 59.2873C119.635 58.4592 119.845 57.6475 120.148 56.8695C120.312 56.4331 120.511 55.9396 120.753 55.3888C120.995 54.8379 121.244 54.2585 121.5 53.6934C121.998 52.6275 122.467 51.6475 122.923 50.7605C123.123 50.2577 123.415 49.7968 123.784 49.4014C123.846 49.3736 123.914 49.359 123.983 49.3584C124.175 49.3584 124.267 49.4657 124.267 49.6946C124.195 50.2616 124.024 50.8113 123.762 51.3184C123.584 51.6904 123.406 52.091 123.236 52.5274C123.065 52.9638 122.887 53.4001 122.724 53.8364C122.439 54.6305 122.19 55.3315 122.012 55.9825C121.874 56.3319 121.778 56.6971 121.728 57.0698C121.728 57.1342 121.863 57.0698 122.09 56.9268C122.318 56.7837 122.553 56.5119 122.859 56.2114C123.407 55.6103 124.02 55.0728 124.687 54.6091C125.076 54.3098 125.549 54.1398 126.039 54.1226C126.362 54.1661 126.661 54.3201 126.885 54.5589C126.998 54.6549 127.088 54.7745 127.149 54.9092C127.21 55.0439 127.242 55.1904 127.241 55.3386C127.247 55.4449 127.264 55.5504 127.291 55.6534C127.302 55.7708 127.336 55.8849 127.39 55.9896C127.469 56.1184 127.675 56.0755 128.016 55.8466C128.358 55.6177 129.027 55.1312 129.987 54.3229C130.875 53.53 131.827 52.8122 132.833 52.1769C133.34 51.8749 133.932 51.7469 134.519 51.8121C134.714 51.8475 134.898 51.9315 135.053 52.0564C135.209 52.1813 135.33 52.3432 135.408 52.5274C135.569 53.1752 135.6 53.8487 135.5 54.5089C135.472 54.9 135.458 55.2719 135.458 55.6248C135.444 55.863 135.444 56.1019 135.458 56.3401C135.571 56.7121 135.998 56.8265 136.738 56.6763C138.261 56.295 139.758 55.8171 141.22 55.2456C142.017 54.938 142.735 54.6877 143.354 54.5303C143.693 54.401 144.04 54.2959 144.393 54.2156C144.5 54.2156 144.564 54.2728 144.585 54.3372C144.606 54.4016 144.421 54.6304 144.101 54.888C143.453 55.4004 142.768 55.8643 142.052 56.2758C141.604 56.5333 141.127 56.7837 140.629 56.9911C140.17 57.2411 139.695 57.4609 139.207 57.6493C138.398 57.9729 137.559 58.2126 136.703 58.3646C136.131 58.4345 135.551 58.3582 135.017 58.1428C134.793 58.0476 134.591 57.9088 134.421 57.7345C134.251 57.5601 134.118 57.3536 134.028 57.127C133.829 56.4598 133.763 55.7595 133.836 55.0668C133.863 54.7049 133.863 54.3415 133.836 53.9796C133.836 53.7006 133.75 53.5503 133.665 53.5146C133.58 53.4788 133.274 53.679 132.683 54.0939C132.093 54.5088 131.438 55.0311 130.677 55.6463C129.382 56.7145 128.467 57.4298 127.931 57.7923C127.583 58.0681 127.168 58.2437 126.729 58.3001C126.501 58.3001 126.281 58.0713 126.053 57.7136C125.849 57.4161 125.749 57.0587 125.768 56.6978C125.793 56.5294 125.793 56.3583 125.768 56.1899C125.756 56.0786 125.706 55.975 125.626 55.8966C125.484 55.7893 125.221 55.8967 124.851 56.2186C124.481 56.5405 123.812 57.2558 122.83 58.3646C122.24 59.0937 121.578 59.76 120.853 60.3532C120.655 60.4963 120.42 60.5784 120.177 60.5893C120.041 60.5963 119.906 60.5667 119.785 60.5035Z" class="color-magenta"/>
<path d="M149.472 53.9866C149.14 54.3408 148.713 54.5896 148.242 54.7019C147.585 54.9037 146.907 55.0262 146.221 55.0667C145.926 55.0627 145.632 55.1112 145.353 55.2098C145.163 55.3009 145.01 55.455 144.919 55.6462C144.721 55.9469 144.619 56.3014 144.628 56.662C144.653 56.8063 144.707 56.9439 144.787 57.0668C144.866 57.1897 144.969 57.2953 145.09 57.3773C145.963 57.7731 146.932 57.9072 147.879 57.7636C149.543 57.4892 151.154 56.9533 152.652 56.1755C153.641 55.7034 154.509 55.3385 155.249 55.0596C155.989 54.7806 156.373 54.6232 156.408 54.6232C156.444 54.6232 156.408 54.6232 156.458 54.7234C156.467 54.7779 156.467 54.8334 156.458 54.8879V54.938C156.458 55.1955 156.074 55.5961 155.348 56.1255C154.553 56.7218 153.708 57.2483 152.823 57.6992C152.289 57.9782 151.749 58.2357 151.208 58.4789C150.667 58.7221 150.134 58.8867 149.643 59.0369C148.813 59.2813 147.954 59.4113 147.089 59.4232H146.797C146.109 59.416 145.428 59.2675 144.798 58.9869C144.398 58.7898 144.051 58.4976 143.788 58.1356C143.524 57.8098 143.356 57.4156 143.304 56.9982V56.8265C143.309 56.5629 143.357 56.3018 143.447 56.0539C143.572 55.6952 143.741 55.3539 143.952 55.0382C144.401 54.3569 144.964 53.7591 145.616 53.2712C146.24 52.7653 146.97 52.4083 147.751 52.2268C147.893 52.1926 148.038 52.1687 148.185 52.1553H148.597C148.817 52.1533 149.033 52.2075 149.226 52.3126C149.419 52.4177 149.582 52.5703 149.7 52.7562C149.787 52.961 149.811 53.1871 149.771 53.4059C149.73 53.6248 149.627 53.8268 149.472 53.9866ZM147.281 53.4715C147.006 53.6163 146.746 53.7889 146.506 53.9866C146.399 54.0652 146.342 54.1296 146.342 54.1797C146.342 54.2298 146.342 54.237 146.435 54.2513H146.506C146.605 54.2513 146.755 54.2513 146.968 54.2513C147.328 54.1861 147.676 54.0655 148 53.8936C148.158 53.7986 148.298 53.6749 148.412 53.5288C148.449 53.478 148.473 53.4192 148.483 53.3571C148.483 53.3071 148.483 53.2784 148.362 53.2641H148.291H147.957C147.722 53.2935 147.493 53.3637 147.281 53.4715Z" class="color-magenta"/>
<path d="M166.105 42.8416C165.968 43.3331 165.79 43.8117 165.571 44.2723C165.329 44.7873 165.052 45.331 164.732 45.8961C164.066 47.0456 163.332 48.154 162.534 49.2153C161.707 50.3337 160.806 51.3948 159.837 52.3914C158.984 53.2784 158.415 53.9365 158.052 54.3729C157.75 54.7966 157.511 55.2615 157.34 55.7535C157.068 56.4446 156.875 57.1646 156.764 57.8996C156.693 58.3717 156.764 58.6149 156.956 58.7007C157.319 58.6597 157.67 58.5453 157.988 58.3646C158.585 58.0856 159.29 57.7279 160.122 57.2701C161.448 56.5066 162.824 55.835 164.241 55.2599C165.073 54.8996 165.968 54.7098 166.873 54.7019C167.207 54.7019 167.378 54.7878 167.378 54.8522C167.378 54.9166 167.264 55.0311 167.087 55.1384C166.877 55.2713 166.661 55.3931 166.439 55.5032C166.162 55.6463 165.963 55.7607 165.835 55.8394C165.301 56.1327 164.625 56.5547 163.786 57.0054C162.946 57.4561 162.242 57.9282 161.651 58.3144C161.061 58.7007 160.407 59.0727 159.802 59.4304C159.197 59.7881 158.763 60.017 158.521 60.1457C158.016 60.3865 157.466 60.518 156.906 60.532H156.835C156.615 60.5408 156.394 60.5049 156.188 60.4262C155.981 60.3476 155.793 60.2278 155.633 60.0741C155.308 59.6726 155.152 59.159 155.199 58.6435C155.212 58.0941 155.293 57.5487 155.441 57.0197C156.035 54.978 156.841 53.0047 157.845 51.1324C158.709 49.416 159.659 47.7447 160.691 46.125C161.451 44.8932 162.312 43.7279 163.266 42.6413C163.617 42.2481 164.005 41.891 164.426 41.5755C164.678 41.3648 164.988 41.2374 165.315 41.2106C165.483 41.1882 165.655 41.2147 165.808 41.2869C165.962 41.3592 166.092 41.4742 166.183 41.6184C166.285 42.0243 166.258 42.4522 166.105 42.8416ZM160.079 49.2797C159.785 49.8281 159.536 50.3288 159.332 50.7819C159.194 51.0416 159.088 51.318 159.019 51.6045C159.019 51.6546 159.019 51.6761 159.09 51.6761C159.162 51.6761 159.489 51.4186 159.958 50.9035C160.683 50.063 161.36 49.1817 161.986 48.2639C162.27 47.8561 162.555 47.4413 162.825 47.005C163.096 46.5686 163.359 46.1394 163.594 45.7173C164.028 44.9447 164.376 44.2867 164.632 43.6858C164.755 43.4258 164.836 43.1483 164.874 42.8631C164.874 42.7987 164.874 42.7558 164.824 42.7415H164.746C164.569 42.7748 164.408 42.8682 164.291 43.0061C164.031 43.2211 163.793 43.4607 163.579 43.7215C162.972 44.4693 162.409 45.2528 161.893 46.0678C161.277 47.0836 160.672 48.147 160.079 49.2582V49.2797Z" class="color-magenta"/>
<path d="M14.3276 8.20488C14.4912 7.98312 14.7473 7.99743 15.103 8.20488C15.4953 8.49185 15.8492 8.82847 16.1559 9.20637C16.5062 9.62026 16.8071 10.074 17.0523 10.5584C17.2695 10.8892 17.3558 11.2899 17.2941 11.6815C16.5875 13.2648 15.9117 14.8242 15.2666 16.3598C14.6122 17.8978 13.979 19.4358 13.353 20.9594L14.4485 20.8378C15.7487 20.4719 16.9795 19.8917 18.0909 19.121C19.3217 18.2778 20.4468 17.2882 21.4416 16.1738C22.4725 15.0268 23.3721 13.767 24.1236 12.4182C24.8675 11.097 25.4277 9.67929 25.7883 8.20488C26.05 7.31781 26.0939 6.3802 25.9163 5.47232C25.7847 4.89174 25.4422 4.38152 24.9559 4.04164C24.4781 3.74906 23.9289 3.59554 23.3695 3.59813C22.8056 3.57896 22.2412 3.61249 21.6835 3.69829C19.7646 3.98803 17.8934 4.53665 16.1203 5.32928C14.1447 6.18682 12.2812 7.28468 10.5714 8.59835C8.82634 9.93098 7.26641 11.4923 5.93308 13.2409C4.62774 14.9469 3.66159 16.8899 3.08748 18.9636C3.00212 19.4787 2.86694 19.7935 2.68198 19.9008C2.52878 19.9549 2.36593 19.9759 2.2041 19.9623C2.04226 19.9488 1.8851 19.901 1.74293 19.8221C1.36598 19.6853 1.03013 19.4536 0.767379 19.1494C0.504628 18.8451 0.323731 18.4782 0.241884 18.0838C-0.0093604 17.1099 -0.0578082 16.0943 0.0995951 15.1008C0.258159 13.9591 0.571725 12.8447 1.03153 11.7887C1.45233 10.771 2.05241 9.83803 2.80291 9.03469C4.20484 7.12969 5.93188 5.48997 7.90365 4.19183C9.81876 2.9057 11.8952 1.88096 14.0786 1.14447C16.0992 0.456943 18.2075 0.0642766 20.3389 -0.0215345C22.1695 -0.116867 24.0019 0.125576 25.7456 0.693806C27.1956 1.15955 28.4611 2.07636 29.3595 3.31197C29.7964 3.97215 30.0987 4.71294 30.2489 5.49144C30.3991 6.26993 30.3942 7.07063 30.2345 7.84721C30.0308 9.1237 29.64 10.3628 29.0749 11.5241C28.4381 12.8835 27.6709 14.1772 26.7842 15.3869C25.8344 16.6833 24.788 17.9053 23.6541 19.0423C22.5351 20.1743 21.3159 21.2015 20.0117 22.1111C18.8104 22.952 17.5166 23.6506 16.1559 24.1928C14.9479 24.6859 13.6535 24.9292 12.3499 24.9081H11.795C11.0884 26.7346 10.4457 28.4776 9.86713 30.1372C9.28378 31.804 8.76445 33.342 8.32338 34.7584C7.88231 36.1748 7.50528 37.4552 7.22072 38.5998C6.97659 39.5406 6.7936 40.4964 6.67292 41.4611C6.5093 41.7043 6.21053 41.783 5.77658 41.6828C5.30481 41.5708 4.85348 41.385 4.43914 41.132C3.99849 40.8751 3.59412 40.56 3.23687 40.1949C3.09767 40.0817 2.98661 39.9374 2.91252 39.7735C2.83843 39.6096 2.80334 39.4306 2.81003 39.2506C3.27407 36.6581 3.9062 34.0989 4.70235 31.5894C5.52758 28.9617 6.44292 26.3817 7.44837 23.8494C6.79019 23.4124 6.29091 22.7722 6.02557 22.0253C5.68913 20.9625 5.61106 19.8341 5.79792 18.7347C5.88239 17.9849 6.10428 17.2573 6.45239 16.5887C6.58756 16.3384 6.70139 16.2525 6.79387 16.3169C6.88635 16.3813 6.93616 16.7461 6.93616 17.4042C6.88705 18.0927 7.01441 18.7823 7.30608 19.4071C7.6139 19.9872 8.11889 20.4366 8.72888 20.6733C9.86712 17.9455 10.9366 15.5062 11.9373 13.3554C12.938 11.2046 13.7348 9.48772 14.3276 8.20488Z" class="color-blue"/>
<path d="M38.7571 21.7034C38.7429 21.7792 38.711 21.8504 38.664 21.9114C38.617 21.9723 38.5563 22.0212 38.4868 22.0539C38.3084 22.1452 38.116 22.2056 37.9177 22.2327C37.6826 22.2721 37.4446 22.2912 37.2063 22.2899C36.9996 22.2949 36.7941 22.2584 36.6016 22.1826C36.9489 22.4009 37.2689 22.6604 37.5549 22.9552C37.8352 23.2452 38.0746 23.5726 38.2663 23.9281C38.452 24.2672 38.5817 24.6344 38.6504 25.0153C38.708 25.3757 38.6636 25.7451 38.5224 26.0813C38.4228 26.2529 38.3161 26.4389 38.188 26.6463L37.8252 27.2901C37.5549 27.7623 37.2845 28.263 37 28.7995C36.7154 29.336 36.4593 29.8653 36.2174 30.3804C35.9755 30.8954 35.7621 31.3819 35.5772 31.8111C35.4186 32.1832 35.3017 32.5719 35.2286 32.97C35.2292 32.9923 35.2243 33.0144 35.2144 33.0344C35.2044 33.0543 35.1898 33.0715 35.1717 33.0844L35.0792 33.1559H35.3353C36.1157 32.8874 36.8394 32.475 37.4695 31.9399C38.1837 31.3505 38.8498 30.7047 39.4614 30.0085C40.1088 29.2931 40.7277 28.5133 41.3253 27.6979C41.9229 26.8824 42.492 26.0812 43.0255 25.323C43.187 25.1644 43.3346 24.9921 43.4666 24.8079C43.5662 24.6577 43.6587 24.5003 43.7583 24.3286C43.8579 24.1569 44.0357 24.1784 44.3061 24.2356C44.5823 24.3015 44.8432 24.4205 45.0744 24.5861C45.3085 24.7461 45.5071 24.9531 45.6577 25.1942C45.7303 25.2786 45.7702 25.3866 45.7702 25.4982C45.7702 25.6099 45.7303 25.7178 45.6577 25.8023L44.5977 27.233V27.2687C43.552 28.6993 42.4635 30.13 41.3253 31.5607C40.2026 32.9638 38.9338 34.242 37.5406 35.3735C37.2769 35.6024 37.0014 35.8172 36.7154 36.0173C36.3657 36.2616 35.9996 36.4815 35.6198 36.6754C35.2028 36.8874 34.7669 37.0598 34.318 37.1904C33.8567 37.3273 33.3753 37.3829 32.8952 37.3549C32.4152 37.3584 31.9412 37.2473 31.5121 37.031C31.083 36.8146 30.711 36.4991 30.4266 36.1103C29.931 35.2817 29.7421 34.3039 29.8931 33.3491C28.8584 34.3293 27.7448 35.2217 26.5637 36.0173C25.6214 36.6995 24.507 37.1012 23.3482 37.1761C22.5514 37.1247 21.7849 36.8496 21.1358 36.3821C20.6096 35.9811 20.1874 35.4584 19.905 34.8584C19.6381 34.2602 19.4838 33.6176 19.4497 32.9628C19.414 32.3305 19.433 31.6962 19.5066 31.0672C19.5827 30.6184 19.6921 30.1761 19.8339 29.7438C20.1279 28.7082 20.5335 27.7079 21.0433 26.7608C21.6358 25.6355 22.3087 24.5549 23.0565 23.5275C23.8481 22.4315 24.7083 21.3874 25.6318 20.4014C26.5431 19.4189 27.5407 18.521 28.6126 17.7189C29.6043 16.9702 30.6784 16.3389 31.8139 15.8375C32.8332 15.3801 33.9346 15.1367 35.0507 15.1222C35.3581 15.12 35.6651 15.1439 35.9684 15.1937C36.29 15.2501 36.6082 15.3241 36.9217 15.4155C37.4545 15.5745 37.9215 15.9033 38.252 16.3526C38.5666 16.8044 38.7802 17.3193 38.8781 17.8619C38.9867 18.4682 39.0226 19.0855 38.9848 19.7004C38.9699 20.3736 38.8936 21.0441 38.7571 21.7034ZM34.4887 21.7034C34.7579 21.5776 35.0622 21.5497 35.3495 21.6246C35.7011 21.7131 36.0387 21.8504 36.3526 22.0324C36.2959 21.9833 36.2553 21.918 36.2362 21.8452C36.2172 21.7724 36.2205 21.6955 36.2459 21.6246C36.2644 21.5398 36.2644 21.4519 36.2459 21.3671C36.2257 21.2704 36.2257 21.1706 36.2459 21.0739C36.2459 20.8307 36.2459 20.5731 36.2459 20.3013C36.244 20.059 36.208 19.8181 36.1392 19.5859C36.0703 19.3647 35.9423 19.1668 35.7693 19.0137C35.5646 18.8554 35.3159 18.7652 35.0579 18.7561C34.0525 18.769 33.0787 19.1105 32.2834 19.729C31.2664 20.4654 30.3441 21.3256 29.5374 22.2899C28.6528 23.3288 27.8512 24.4362 27.14 25.602C26.499 26.6262 25.9308 27.6947 25.4397 28.7995C25.2983 29.1279 25.1771 29.4648 25.0769 29.8082C24.9524 30.1993 24.8666 30.6018 24.8208 31.0099C24.7712 31.262 24.745 31.5183 24.7426 31.7753C24.7349 31.9977 24.7945 32.2172 24.9133 32.4048C24.9669 32.4918 25.0385 32.5662 25.1232 32.623C25.2079 32.6797 25.3037 32.7175 25.4042 32.7339C25.7091 32.78 26.0206 32.7555 26.3147 32.6624C26.841 32.4809 27.3251 32.1936 27.7375 31.8182C28.2995 31.3533 28.89 30.8025 29.5089 30.1802C30.1278 29.5578 30.7396 28.8854 31.3372 28.1772C31.9348 27.469 32.4399 26.8252 32.8596 26.2601C33.2224 25.5448 33.571 24.8294 33.8627 24.1141C34.1262 23.5398 34.3404 22.9438 34.503 22.3328L34.4887 21.7034Z" class="color-blue"/>
<path d="M56.8338 30.0871C56.1224 30.9241 55.411 31.7753 54.5644 32.648C53.7477 33.503 52.8678 34.2945 51.9322 35.0159C51.0393 35.707 50.0672 36.2881 49.0368 36.7469C48.1109 37.1766 47.0963 37.3778 46.0774 37.3335C45.5766 37.3266 45.0862 37.1885 44.6546 36.9329C44.2724 36.6947 43.9624 36.3558 43.7582 35.9529C43.5439 35.5215 43.4135 35.053 43.3741 34.5723C43.3267 34.0324 43.353 33.4884 43.4523 32.9557C43.611 32.1725 43.8494 31.4078 44.1637 30.6737C44.4796 29.9712 44.8532 29.2965 45.2807 28.6565C45.7075 28.0198 46.1628 27.3903 46.6536 26.7751C47.1445 26.1599 47.6567 25.5376 48.1903 24.9009L49.0653 23.8708V23.9066L50.1324 22.6548C50.3486 22.3712 50.6137 22.1289 50.9149 21.9394C51.4004 21.6533 51.9255 21.4411 52.4729 21.3099L51.6263 21.4744C51.4129 21.4744 51.2137 21.5603 51.043 21.6032L50.0897 21.8249C49.7299 21.902 49.3609 21.9261 48.9942 21.8965H48.6313C47.9674 22.7358 47.3461 23.5513 46.7675 24.3429C46.177 25.1441 45.6292 25.8953 45.117 26.6106V26.5676C45.0174 26.7179 44.8467 26.7537 44.6048 26.6821C44.3434 26.605 44.101 26.4733 43.8934 26.2958C43.6859 26.1181 43.5081 25.908 43.367 25.6735C43.2995 25.5867 43.2628 25.4797 43.2628 25.3695C43.2628 25.2593 43.2995 25.1523 43.367 25.0654C44.0784 24.1355 44.676 23.32 45.1597 22.619C45.6506 21.9036 46.0916 21.3027 46.4829 20.7591C46.2888 20.3079 46.2488 19.8048 46.3691 19.3284C46.4769 18.5999 46.7521 17.9068 47.173 17.304C47.5856 16.7103 48.0765 16.0236 48.6385 15.2438C48.859 14.9219 49.0938 14.5714 49.3499 14.178C49.6434 13.7186 49.9071 13.2408 50.1395 12.7473L51.1639 13.3553C51.4959 13.5484 51.7979 13.7894 52.0603 14.0707C52.3314 14.3661 52.5304 14.7209 52.6415 15.107C52.7527 15.4931 52.7729 15.9 52.7005 16.2954C52.6507 16.5171 52.5867 16.7532 52.5156 17.0107C52.4185 17.327 52.2822 17.6299 52.1101 17.912L50.5735 19.5644C50.4525 19.7147 50.5165 19.7362 50.7584 19.6217C51.0003 19.5073 51.356 19.3213 51.8184 19.0566C52.2808 18.7919 52.8073 18.4629 53.3906 18.098L55.1122 16.9964C55.6742 16.6244 56.1651 16.2811 56.5919 15.9663C56.905 15.7467 57.2044 15.5078 57.4883 15.251C57.6887 15.2688 57.8793 15.346 58.036 15.4727C58.2621 15.62 58.4762 15.7851 58.6763 15.9663C58.8826 16.1523 59.0676 16.324 59.2241 16.4814C59.3309 16.5725 59.4243 16.6785 59.5015 16.7961C59.6953 17.2729 59.6953 17.8072 59.5015 18.284C59.2604 18.9547 58.9353 19.5917 58.534 20.1797C58.0248 20.9397 57.4738 21.6704 56.8836 22.3686C56.2433 23.1412 55.5604 23.9281 54.8561 24.7364C54.4435 25.1799 54.038 25.6234 53.6467 26.0669C53.2554 26.5105 52.8713 26.9611 52.48 27.4261L51.4912 28.5992C51.1283 29.0427 50.7798 29.4934 50.4312 29.944C50.1069 30.3715 49.8121 30.8208 49.5491 31.2889C49.3457 31.6298 49.1991 32.002 49.1151 32.3905C49.0653 32.5407 49.1862 32.6123 49.4779 32.6123C49.8488 32.6096 50.2132 32.5136 50.5379 32.3333C51.0394 32.0871 51.5159 31.7923 51.9607 31.4534C52.5117 31.0379 53.0367 30.5889 53.5329 30.1086C54.0753 29.5852 54.5771 29.0207 55.0339 28.4204C55.6647 27.6335 56.2623 26.8609 56.8267 26.1027C57.3815 25.3372 57.8369 24.672 58.1783 24.1498C58.2539 24.0871 58.3462 24.0483 58.4436 24.0381C58.5411 24.0279 58.6393 24.0469 58.7261 24.0926C58.9895 24.1861 59.2315 24.3321 59.4375 24.5218C59.6556 24.722 59.83 24.9656 59.9497 25.2371C60.0108 25.3353 60.0396 25.4504 60.0319 25.566C60.0243 25.6816 59.9806 25.7918 59.907 25.8809L59.9497 25.8023L58.6336 27.6407L56.912 30.1086L56.8338 30.0871Z" class="color-blue"/>
<path d="M74.0212 21.7034C74.007 21.7791 73.9751 21.8504 73.9281 21.9114C73.8811 21.9723 73.8203 22.0212 73.7508 22.0539C73.5721 22.1442 73.3798 22.2046 73.1817 22.2327C72.9466 22.2717 72.7086 22.2908 72.4703 22.2899C72.2637 22.2948 72.0581 22.2583 71.8656 22.1826C72.2129 22.4009 72.533 22.6603 72.8189 22.9552C73.0993 23.2452 73.3386 23.5725 73.5303 23.9281C73.716 24.2672 73.8458 24.6343 73.9145 25.0153C73.972 25.3756 73.9277 25.7451 73.7864 26.0812L73.4521 26.6463L73.0893 27.2901C72.8189 27.7622 72.5486 28.263 72.264 28.7995C71.9795 29.336 71.7234 29.8653 71.4815 30.3803C71.2396 30.8954 71.0191 31.3818 70.8412 31.811C70.6826 32.1831 70.5657 32.5719 70.4926 32.97C70.4932 32.9923 70.4884 33.0144 70.4784 33.0343C70.4685 33.0543 70.4538 33.0714 70.4357 33.0844L70.3432 33.1559H70.5994C71.38 32.888 72.1039 32.4756 72.7336 31.9398C73.45 31.3506 74.1185 30.7048 74.7326 30.0084C75.3728 29.2931 75.9989 28.5133 76.5964 27.6978C77.194 26.8823 77.7632 26.0812 78.2967 25.3229C78.4562 25.1624 78.6036 24.9903 78.7378 24.8079C78.8303 24.6577 78.9299 24.5003 79.0294 24.3286C79.129 24.1569 79.3069 24.1784 79.5772 24.2356C79.8534 24.3015 80.1143 24.4205 80.3455 24.5861C80.5797 24.7461 80.7783 24.9531 80.9289 25.1941C81.0015 25.2786 81.0414 25.3865 81.0414 25.4982C81.0414 25.6098 81.0015 25.7178 80.9289 25.8022L79.8689 27.2329V27.2686C78.8231 28.6993 77.7347 30.13 76.5964 31.5607C75.4738 32.9637 74.205 34.242 72.8118 35.3735C72.5913 35.5666 72.3138 35.7812 71.9866 36.0172C71.6358 36.26 71.2699 36.4799 70.891 36.6754C70.474 36.8874 70.0381 37.0598 69.5892 37.1904C69.1278 37.3272 68.6465 37.3829 68.1664 37.3549C67.6862 37.3595 67.2118 37.249 66.7825 37.0325C66.3532 36.8161 65.9814 36.4999 65.6978 36.1102C65.2022 35.2817 65.0132 34.3039 65.1642 33.349C64.1296 34.3293 63.016 35.2217 61.8349 36.0172C60.892 36.6985 59.7779 37.1 58.6194 37.1761C57.8226 37.1247 57.056 36.8496 56.4069 36.3821C55.8788 35.9832 55.4562 35.4599 55.1762 34.8584C54.9093 34.2602 54.7549 33.6175 54.7209 32.9628C54.6816 32.3305 54.7007 31.6959 54.7778 31.0671C54.8505 30.6177 54.9599 30.1751 55.1051 29.7438C55.3991 28.7082 55.8046 27.7079 56.3144 26.7608C56.907 25.6355 57.5798 24.5549 58.3277 23.5274C59.1193 22.4315 59.9794 21.3874 60.903 20.4014C61.8142 19.4188 62.8119 18.521 63.8837 17.7189C64.8734 16.9672 65.948 16.3357 67.085 15.8375C68.1043 15.3801 69.2058 15.1367 70.3219 15.1222C70.6292 15.1203 70.9362 15.1442 71.2396 15.1937C71.559 15.2493 71.8749 15.3234 72.1858 15.4155C72.7214 15.5726 73.1912 15.9017 73.5232 16.3525C73.8385 16.8031 74.05 17.3188 74.1421 17.8619C74.2569 18.4674 74.2951 19.0852 74.2559 19.7004C74.2387 20.3738 74.1601 21.0443 74.0212 21.7034ZM69.7528 21.7034C70.0196 21.5781 70.3215 21.5502 70.6065 21.6246C70.9607 21.7117 71.3008 21.849 71.6166 22.0324C71.561 21.9824 71.5207 21.9175 71.5005 21.8453C71.4804 21.773 71.4811 21.6964 71.5028 21.6246C71.5251 21.5402 71.5251 21.4515 71.5028 21.3671C71.4827 21.2704 71.4827 21.1706 71.5028 21.0739C71.5028 20.8306 71.5028 20.5731 71.5028 20.3012C71.5017 20.0583 71.4633 19.817 71.389 19.5859C71.3252 19.364 71.1993 19.1654 71.0262 19.0137C70.8209 18.8566 70.5726 18.7666 70.3148 18.7561C69.3072 18.7684 68.3309 19.11 67.5332 19.729C66.5201 20.4675 65.6003 21.3275 64.7943 22.2899C63.9075 23.3269 63.1057 24.4346 62.3969 25.6019C61.7559 26.6262 61.1878 27.6947 60.6967 28.7995C60.5557 29.1289 60.4322 29.4656 60.3267 29.8081C60.209 30.201 60.1233 30.6029 60.0706 31.0099C60.0268 31.2627 60.003 31.5187 59.9995 31.7753C59.9931 31.9966 60.0499 32.215 60.1631 32.4048C60.2201 32.4902 60.2936 32.5634 60.3791 32.6199C60.4646 32.6764 60.5605 32.7151 60.6611 32.7338C60.9661 32.78 61.2775 32.7555 61.5717 32.6623C62.0979 32.4808 62.582 32.1936 62.9945 31.8182C63.5494 31.3532 64.1469 30.8025 64.7659 30.1801C65.3848 29.5578 65.9966 28.8853 66.5942 28.1771C67.1917 27.4689 67.6968 26.8252 68.1166 26.2601C68.4794 25.5447 68.828 24.8294 69.1196 24.114C69.3831 23.5397 69.5973 22.9438 69.7599 22.3328L69.7528 21.7034Z" class="color-blue"/>
<path d="M93.0796 28.7995C92.6801 29.4875 92.3329 30.2049 92.0409 30.9455C91.7949 31.5417 91.6044 32.1596 91.4718 32.7912C91.422 33.0058 91.3651 33.1416 91.2868 33.1917H91.6568C92.4367 32.9223 93.1603 32.51 93.791 31.9757C94.5051 31.3864 95.1712 30.7404 95.7829 30.0442C96.4303 29.3289 97.0492 28.5492 97.6468 27.7337C98.2443 26.9182 98.8135 26.117 99.347 25.3588C99.5085 25.2002 99.6561 25.0278 99.7881 24.8437C99.8877 24.6934 99.9873 24.5361 100.08 24.3644C100.172 24.1928 100.364 24.2142 100.628 24.2714C100.904 24.3373 101.165 24.4563 101.396 24.622C101.632 24.7816 101.833 24.9886 101.986 25.23C102.056 25.3157 102.094 25.4232 102.094 25.534C102.094 25.6449 102.056 25.7523 101.986 25.838L100.926 27.2687V27.3045C99.8734 28.7352 98.7921 30.1658 97.6468 31.5965C96.526 33.0013 95.257 34.2796 93.8621 35.4093C93.6416 35.6024 93.3712 35.817 93.044 36.0531C92.6908 36.2959 92.3225 36.5157 91.9413 36.7112C91.5273 36.9244 91.0937 37.0969 90.6466 37.2262C90.1852 37.3626 89.7039 37.4183 89.2238 37.3908C88.7439 37.3936 88.2701 37.2823 87.8411 37.066C87.4121 36.8497 87.04 36.5345 86.7552 36.1461C86.2586 35.318 86.0719 34.3389 86.2288 33.3849C85.1912 34.3617 84.0779 35.2539 82.8994 36.0531C81.954 36.7346 80.8376 37.136 79.6768 37.2119C78.88 37.1605 78.1134 36.8855 77.4643 36.4179C76.9382 36.0188 76.518 35.4955 76.2407 34.8942C75.9715 34.2965 75.8148 33.6537 75.7783 32.9986C75.7399 32.3785 75.7542 31.7563 75.821 31.1387C75.8971 30.69 76.0064 30.2476 76.1482 29.8153C76.4455 28.7808 76.8509 27.7809 77.3576 26.8323C77.9502 25.7071 78.623 24.6265 79.3709 23.599C80.1646 22.5047 81.0247 21.4608 81.9461 20.4729C82.8582 19.4885 83.8584 18.5906 84.934 17.7904C85.9223 17.0404 86.9943 16.409 88.1282 15.9091C89.15 15.4517 90.2538 15.2083 91.3722 15.1937C91.6772 15.1918 91.9818 15.2158 92.2828 15.2653C92.6045 15.3209 92.9228 15.3949 93.2361 15.487C93.8594 15.7053 94.3892 16.1321 94.7371 16.696L95.0644 16.2239L96.4516 14.0778C97.0634 13.1765 97.6562 12.2227 98.2301 11.2165C98.7992 10.2365 99.3399 9.27792 99.8379 8.35513C100.336 7.43234 100.791 6.50236 101.19 5.62964C101.588 4.75693 101.944 3.9701 102.235 3.26191C102.446 3.16084 102.677 3.1084 102.911 3.1084C103.145 3.1084 103.376 3.16084 103.587 3.26191C104.135 3.47904 104.633 3.80504 105.052 4.22044C105.489 4.648 105.825 5.16871 106.034 5.74412C106.145 6.01516 106.195 6.30698 106.183 6.59961C106.171 6.89224 106.096 7.17874 105.963 7.43947C105.821 7.73276 105.55 8.22639 105.159 8.91311C104.768 9.59984 104.313 10.3438 103.786 11.2236C103.26 12.1035 102.705 12.9833 102.107 13.9276C101.51 14.8718 100.941 15.7661 100.407 16.5959L99.1265 18.6202H99.162C98.1376 20.1654 97.1132 21.7701 96.0888 23.4345C95.0644 25.0988 94.0874 26.8896 93.1578 28.8067L93.0796 28.7995ZM82.6575 32.6266C83.155 32.4358 83.6132 32.1546 84.0092 31.7968C84.6257 31.2927 85.2124 30.7529 85.7664 30.1802C86.3711 29.5578 86.9757 28.8925 87.5733 28.1915C88.1709 27.4905 88.6902 26.861 89.1313 26.303L89.7502 25.0511C90.6039 23.4059 91.5524 21.7749 92.5958 20.1582C92.5588 19.8203 92.4523 19.4939 92.2828 19.1997C92.1897 19.0564 92.0633 18.9378 91.9147 18.8544C91.766 18.7709 91.5994 18.7249 91.4291 18.7204C90.4142 18.7281 89.4297 19.0698 88.6262 19.6933C87.6108 20.4315 86.6886 21.2915 85.8802 22.2541C84.2222 24.2235 82.8432 26.4142 81.7825 28.7638C81.6411 29.0922 81.5199 29.429 81.4197 29.7724C81.3019 30.1653 81.2163 30.5672 81.1636 30.9742C81.1162 31.2265 81.0924 31.4827 81.0925 31.7396C81.0827 31.9612 81.1398 32.1806 81.2561 32.3691C81.3098 32.456 81.3813 32.5304 81.466 32.5872C81.5507 32.644 81.6465 32.6818 81.747 32.6982C82.052 32.743 82.3631 32.7185 82.6575 32.6266Z" class="color-blue"/>
<path d="M105.188 15.4872C105.393 15.4007 105.616 15.3641 105.839 15.3803C106.061 15.3964 106.277 15.4649 106.468 15.5802C106.969 15.8186 107.407 16.1713 107.749 16.6103C108.123 17.0705 108.386 17.6117 108.517 18.1912C108.592 18.4847 108.607 18.7902 108.563 19.0899C108.52 19.3895 108.417 19.6773 108.261 19.9366C108.311 19.8865 108.261 19.9367 108.19 20.0797L107.784 20.6734L107.201 21.5176C106.98 21.8395 106.788 22.1328 106.618 22.3974C106.176 23.0412 105.693 23.7423 105.195 24.5435C104.697 25.3446 104.142 26.1028 103.615 26.8969C103.089 27.6909 102.591 28.4778 102.122 29.236C101.652 29.9943 101.239 30.6668 100.912 31.2605C100.646 31.7224 100.409 32.2002 100.201 32.6912C100.051 33.0417 100.051 33.2205 100.201 33.2205H100.457C101.284 32.9496 102.062 32.5461 102.762 32.0259C103.539 31.4563 104.267 30.8222 104.939 30.1302C105.65 29.4149 106.305 28.6996 106.966 27.8698L108.866 25.5735L109.527 24.6865C109.604 24.6141 109.701 24.5666 109.805 24.55C109.909 24.5334 110.015 24.5486 110.111 24.5935C110.366 24.6887 110.597 24.8402 110.786 25.037C110.989 25.24 111.147 25.4838 111.249 25.7523C111.298 25.8559 111.317 25.9717 111.303 26.0858C111.29 26.1999 111.243 26.3076 111.171 26.3962V26.3175C109.956 27.9151 108.593 29.5342 107.08 31.1747C105.66 32.7297 104.131 34.1807 102.506 35.5168L101.609 36.1248C101.238 36.3623 100.853 36.5773 100.457 36.7686C100.031 36.9662 99.5912 37.1312 99.1407 37.2622C98.6996 37.3936 98.2421 37.461 97.782 37.4625C97.3881 37.4934 96.9942 37.4032 96.6524 37.2039C96.3107 37.0046 96.0372 36.7057 95.8683 36.3466C95.5215 35.4896 95.4373 34.548 95.6264 33.6426C95.8066 32.782 96.0761 31.9429 96.4303 31.1389H96.3947C97.01 29.6619 97.723 28.228 98.5289 26.8468C99.4395 25.2254 100.388 23.6063 101.375 21.9896L103.224 18.7706C103.822 17.7262 104.327 16.782 104.739 15.9093L105.188 15.4872ZM110.751 4.22778C110.95 4.22765 111.147 4.27262 111.327 4.35929C111.507 4.44596 111.665 4.57209 111.789 4.72849C112.212 5.13006 112.593 5.57349 112.928 6.05194C113.263 6.52827 113.556 7.03333 113.803 7.56129C113.998 7.88623 114.095 8.26185 114.08 8.64146C113.838 9.29452 113.538 9.92422 113.184 10.5228C112.849 11.0593 112.515 11.6101 112.174 12.1752C111.832 12.7403 111.462 13.3126 111.135 13.9064C110.741 14.5687 110.391 15.257 110.089 15.9665C109.743 15.8582 109.425 15.6751 109.157 15.43C108.823 15.1409 108.522 14.8145 108.261 14.4572C108 14.1042 107.785 13.7196 107.621 13.3126C107.475 13.0054 107.419 12.6634 107.457 12.3254C107.578 11.8318 107.742 11.2954 107.948 10.7016C108.154 10.1079 108.396 9.49983 108.659 8.86317C108.922 8.22652 109.179 7.57558 109.428 6.91747C109.657 6.2898 109.852 5.64974 110.011 5.00032L110.751 4.22778Z" class="color-blue"/>
<path d="M104.747 31.854C104.959 30.7864 105.356 29.7647 105.92 28.8353C106.449 27.9167 107.158 27.1159 108.005 26.4818L109.029 25.1584C109.854 23.9853 110.708 22.8193 111.569 21.6676C112.43 20.5159 113.333 19.3999 114.258 18.3198C114.445 18.1364 114.616 17.9378 114.77 17.7261C114.92 17.5329 115.076 17.3398 115.247 17.1395C115.759 16.4814 116.35 15.7661 117.025 14.9935C117.905 14.039 118.856 13.1541 119.871 12.3467C120.212 12.5398 120.625 12.8188 121.116 13.1693C121.577 13.5028 121.989 13.9002 122.339 14.3497C122.65 14.7361 122.847 15.2018 122.909 15.6945C122.919 15.9484 122.858 16.2 122.732 16.4202C122.606 16.6405 122.421 16.8205 122.197 16.9392L122.311 16.9034C121.942 17.2075 121.593 17.5348 121.265 17.8834C121.059 18.1123 120.831 18.3913 120.589 18.7061L120.006 19.4214C119.396 20.2512 118.916 21.1704 118.583 22.1469C118.262 23.0801 118.012 24.0367 117.836 25.0083C117.737 25.5233 117.666 26.0383 117.616 26.5676C117.566 27.097 117.516 27.6263 117.473 28.17L117.217 30.3733C117.083 31.4289 116.773 32.4542 116.3 33.4063C115.87 34.2871 115.281 35.0801 114.564 35.7454C113.88 36.3656 113.086 36.8509 112.223 37.1761C111.354 37.5064 110.426 37.6502 109.499 37.5982C108.659 37.5564 107.836 37.3447 107.08 36.9759C106.472 36.6721 105.941 36.2314 105.529 35.6882C105.148 35.1642 104.89 34.5601 104.775 33.9214C104.648 33.239 104.638 32.5397 104.747 31.854ZM112.906 25.0511C112.906 24.8508 112.97 24.6506 113.013 24.4431L113.162 23.8351L111.626 25.8953H111.59C111.661 26.2278 111.708 26.5647 111.733 26.9038C111.783 27.4053 111.797 27.9097 111.775 28.4132C111.752 28.9215 111.683 29.4268 111.569 29.9226C111.504 30.319 111.321 30.6859 111.042 30.9742C111.003 30.7997 110.915 30.6401 110.789 30.5135C110.663 30.387 110.505 30.2987 110.331 30.2588C109.969 30.1983 109.598 30.2559 109.271 30.4233C108.899 30.5961 108.563 30.8389 108.282 31.1387C108.019 31.3957 107.83 31.7195 107.734 32.0758C107.706 32.2271 107.706 32.3823 107.734 32.5336C107.755 32.7151 107.791 32.8946 107.841 33.0701C107.991 33.4389 108.262 33.7446 108.609 33.9357C108.929 34.1095 109.275 34.228 109.634 34.2862C109.975 34.337 110.323 34.2715 110.623 34.1002C110.927 33.9127 111.195 33.6701 111.412 33.3849C111.654 33.0709 111.851 32.7241 111.996 32.3547C112.154 31.9506 112.271 31.5311 112.344 31.1029C112.437 30.223 112.515 29.2931 112.565 28.3131C112.608 27.7981 112.65 27.2544 112.693 26.6893C112.728 26.1391 112.799 25.5918 112.906 25.0511Z" class="color-blue"/>
<path d="M134.967 22.0324C133.576 24.1624 131.823 26.0293 129.788 27.5477C127.853 28.9957 125.688 30.1035 123.385 30.824C123.305 31.4511 123.348 32.088 123.513 32.6982C123.567 32.9627 123.698 33.2051 123.89 33.3948C124.081 33.5845 124.324 33.713 124.587 33.764L124.516 33.7282C125.082 33.8447 125.669 33.8076 126.217 33.6209C127.011 33.3788 127.768 33.0248 128.465 32.5694C129.356 31.9899 130.194 31.3315 130.969 30.6022C131.917 29.7172 132.797 28.7607 133.601 27.7408C134.063 27.1542 134.511 26.5462 134.938 25.9238L136.162 24.1355C136.27 23.9942 136.405 23.8759 136.559 23.7875C136.713 23.6991 136.882 23.6423 137.058 23.6204C137.361 23.5899 137.664 23.6787 137.903 23.8682C138.142 24.0577 138.298 24.3331 138.339 24.6363C138.359 24.8363 138.338 25.0382 138.278 25.23C138.218 25.4218 138.12 25.5995 137.99 25.7521L137.08 27.0755C136.297 28.1843 135.351 29.4004 134.234 30.738C133.074 32.1288 131.808 33.4275 130.449 34.6224C129.71 35.2468 128.901 35.7822 128.038 36.2176C127.352 36.5626 126.638 36.8474 125.904 37.0689C125.325 37.2363 124.732 37.3464 124.132 37.3979C123.606 37.3979 123.2 37.4551 122.909 37.4551C121.002 37.4551 119.629 36.8972 118.79 35.7955C117.95 34.6939 117.651 33.1845 117.893 31.2745C118.13 29.5611 118.67 27.904 119.487 26.3816C120.494 24.5359 121.686 22.7982 123.044 21.1954C123.669 20.4944 124.342 19.8371 125.057 19.2282C125.88 18.5124 126.76 17.8664 127.689 17.2969C128.63 16.7159 129.629 16.2364 130.67 15.8662C131.625 15.5158 132.634 15.3414 133.651 15.3512C134.081 15.3369 134.508 15.4209 134.901 15.5969C135.294 15.7728 135.643 16.0361 135.92 16.3669C136.185 16.7433 136.364 17.1733 136.447 17.6267C136.529 18.0801 136.512 18.5461 136.397 18.9922C136.315 19.5095 136.162 20.0128 135.941 20.4872C135.67 21.0504 135.344 21.5848 134.967 22.0824V22.0324ZM133.06 19.0137C132.12 19.2141 131.234 19.6167 130.464 20.1939C129.588 20.8231 128.78 21.5424 128.052 22.34C127.293 23.1764 126.596 24.0683 125.968 25.0082C125.386 25.8619 124.86 26.7532 124.395 27.6765C126.134 26.9655 127.759 26.0014 129.219 24.8151C130.721 23.5876 132.008 22.1149 133.025 20.4586C133.161 20.2825 133.267 20.0841 133.338 19.8721C133.395 19.6718 133.451 19.5001 133.501 19.357C133.551 19.0423 133.402 18.9207 133.06 19.0137Z" class="color-blue"/>
<path d="M149.38 18.978C149.302 19.4931 149.159 19.8079 148.974 19.9152C148.821 19.9693 148.658 19.9903 148.496 19.9767C148.335 19.9632 148.177 19.9153 148.035 19.8364C147.659 19.6984 147.324 19.4665 147.061 19.1624C146.799 18.8584 146.617 18.4921 146.534 18.0982C146.287 17.1238 146.238 16.1089 146.392 15.1152C146.553 13.9732 146.869 12.8588 147.331 11.8031C147.747 10.7844 148.345 9.85094 149.095 9.0491C150.497 7.1441 152.224 5.50438 154.196 4.20623C156.111 2.92011 158.188 1.89536 160.371 1.15888C162.392 0.47192 164.5 0.0792689 166.631 -0.00713018C168.462 -0.102463 170.294 0.13998 172.038 0.70821C173.49 1.17395 174.758 2.09061 175.659 3.32638C176.096 3.98656 176.398 4.72735 176.548 5.50584C176.699 6.28434 176.694 7.08504 176.534 7.86161C176.281 9.2912 175.801 10.6705 175.111 11.9463C174.344 13.4491 173.431 14.8723 172.386 16.1953C171.29 17.6078 170.074 18.9218 168.751 20.1226C167.481 21.295 166.085 22.3219 164.59 23.1842L165.237 23.5133C165.719 23.7731 166.144 24.1282 166.486 24.5572C166.828 24.9862 167.081 25.4802 167.229 26.0098C167.495 27.1387 167.445 28.3194 167.087 29.422C166.652 30.7978 166.014 32.1 165.194 33.2848C164.263 34.6631 163.195 35.9429 162.007 37.1047C160.752 38.3287 159.39 39.4371 157.938 40.4167C156.526 41.3775 155.004 42.1652 153.406 42.7631C151.945 43.3192 150.401 43.6239 148.839 43.6644C147.37 43.7012 145.918 43.3484 144.628 42.6414C144.06 42.3561 143.567 41.9419 143.187 41.4316C142.806 40.9213 142.55 40.3289 142.437 39.7014C142.251 38.1984 142.475 36.673 143.084 35.2878C143.141 35.1519 143.248 34.9158 143.411 34.5725C143.556 34.2844 143.718 34.0049 143.895 33.7355C144.061 33.5066 144.21 33.385 144.343 33.3707C144.478 33.3707 144.549 33.571 144.549 34.0002C144.566 34.5174 144.662 35.029 144.834 35.5167C144.972 35.9048 145.156 36.2747 145.382 36.6183C145.56 36.8778 145.765 37.1176 145.994 37.3337C146.139 37.479 146.294 37.6152 146.456 37.7414C147.36 38.3398 148.427 38.6399 149.508 38.5998C150.813 38.5868 152.108 38.3746 153.349 37.9703C154.74 37.5218 156.082 36.9321 157.355 36.2105C158.629 35.496 159.832 34.66 160.947 33.714C161.942 32.8917 162.812 31.9278 163.53 30.8526C164.128 30.0164 164.467 29.0209 164.504 27.9913C164.46 27.5702 164.305 27.1686 164.054 26.8278C163.804 26.4871 163.468 26.2195 163.081 26.0527C162.02 25.467 160.875 25.0473 159.688 24.8081C159.51 24.8581 159.325 24.8845 159.14 24.8867H158.102C157.155 27.2331 156.387 29.2861 155.804 31.0601C155.276 32.6051 154.876 34.1914 154.609 35.8028C154.473 36.0461 154.189 36.1175 153.755 36.0245C153.28 35.914 152.827 35.7281 152.41 35.4738C151.965 35.2151 151.556 34.8975 151.194 34.5295C150.838 34.179 150.689 33.8643 150.746 33.5925C151.531 30.2815 152.549 27.0305 153.79 23.8638C153.122 23.4272 152.605 22.7923 152.311 22.0469C151.947 20.9746 151.871 19.8247 152.09 18.7134C152.123 18.3185 152.204 17.9293 152.332 17.5545C152.436 17.2086 152.571 16.8732 152.738 16.553C152.873 16.3026 152.987 16.2168 153.079 16.2812C153.172 16.3456 153.228 16.7104 153.228 17.3685C153.143 19.0281 153.783 20.1297 155.135 20.6805C156.273 18.0624 157.338 15.7113 158.329 13.6273C159.194 11.8449 159.947 10.0101 160.584 8.13344C160.741 7.91169 161.004 7.92599 161.353 8.13344C161.747 8.42031 162.103 8.7569 162.413 9.13494C162.758 9.55078 163.057 10.0043 163.302 10.4869C163.52 10.8174 163.609 11.2175 163.551 11.61C162.821 13.384 162.135 15.0245 161.495 16.5315C160.855 18.0385 160.252 19.4907 159.688 20.888L160.705 20.7664C162.003 20.4003 163.232 19.8202 164.341 19.0495C165.574 18.2102 166.7 17.2203 167.691 16.1023C168.724 14.9555 169.626 13.6958 170.38 12.3468C171.118 11.0225 171.678 9.60572 172.045 8.13344C172.309 7.24652 172.35 6.30785 172.166 5.40088C172.037 4.82114 171.697 4.31087 171.213 3.9702C170.735 3.67763 170.186 3.5241 169.626 3.5267C169.062 3.50707 168.498 3.54061 167.94 3.62685C166.019 3.91554 164.145 4.4641 162.37 5.25776C160.396 6.11872 158.533 7.21643 156.821 8.52692C155.077 9.85782 153.519 11.4194 152.19 13.1695C150.885 14.9026 149.93 16.8759 149.38 18.978Z" class="color-blue"/>
<path d="M185.128 22.0324C182.396 26.2136 178.312 29.3189 173.567 30.824C173.494 31.4513 173.537 32.0869 173.695 32.6982C173.75 32.9637 173.882 33.2068 174.075 33.3966C174.267 33.5864 174.512 33.7143 174.777 33.764L174.699 33.7282C175.265 33.8447 175.852 33.8077 176.399 33.6209C177.177 33.3759 177.917 33.0219 178.597 32.5694C179.488 31.9899 180.326 31.3316 181.101 30.6022C182.052 29.7191 182.932 28.7624 183.733 27.7408C184.203 27.1543 184.644 26.5462 185.071 25.9238L186.294 24.1355C186.402 23.9942 186.537 23.8759 186.691 23.7875C186.845 23.6991 187.015 23.6423 187.191 23.6205C187.494 23.5861 187.799 23.6736 188.039 23.8637C188.278 24.0539 188.434 24.3315 188.471 24.6363C188.495 24.8365 188.476 25.0393 188.416 25.2316C188.355 25.424 188.256 25.6013 188.123 25.7522L187.212 27.0755C186.43 28.1843 185.483 29.4004 184.366 30.7381C183.206 32.1288 181.941 33.4275 180.582 34.6224C179.845 35.2499 179.035 35.7855 178.17 36.2176C177.484 36.5626 176.77 36.8474 176.036 37.0689C175.458 37.2363 174.864 37.3465 174.265 37.3979C173.738 37.3979 173.333 37.4551 173.041 37.4551C171.134 37.4551 169.769 36.8972 168.922 35.7956C168.075 34.6939 167.784 33.1845 168.026 31.2746C168.262 29.5611 168.802 27.9041 169.619 26.3817C170.626 24.5359 171.818 22.7982 173.176 21.1955C173.802 20.4944 174.475 19.8371 175.189 19.2283C176.014 18.5141 176.894 17.8682 177.822 17.2969C178.762 16.7159 179.762 16.2364 180.802 15.8662C181.759 15.5151 182.772 15.3407 183.79 15.3512C184.219 15.3381 184.645 15.4226 185.037 15.5985C185.429 15.7744 185.776 16.0371 186.052 16.3669C186.318 16.7427 186.499 17.1726 186.581 17.6263C186.664 18.0799 186.646 18.5463 186.529 18.9922C186.448 19.5096 186.294 20.0128 186.074 20.4873C185.803 21.0489 185.479 21.5831 185.106 22.0825L185.128 22.0324ZM183.221 19.0137C182.281 19.2141 181.395 19.6167 180.625 20.194C179.749 20.8232 178.94 21.5424 178.213 22.34C176.767 23.9504 175.538 25.7445 174.556 27.6765C176.296 26.9639 177.923 26 179.387 24.8151C180.887 23.5874 182.171 22.1147 183.186 20.4586C183.322 20.2825 183.428 20.0841 183.499 19.8721C183.563 19.6718 183.612 19.5001 183.662 19.3571C183.712 19.0423 183.563 18.9207 183.242 19.0137H183.221Z" class="color-blue"/>
<path d="M202.208 21.7034C202.194 21.7792 202.162 21.8505 202.115 21.9114C202.068 21.9724 202.008 22.0213 201.938 22.054C201.759 22.1442 201.567 22.2046 201.369 22.2328C201.134 22.2718 200.896 22.2909 200.658 22.29C200.451 22.2949 200.245 22.2584 200.053 22.1827C200.399 22.4029 200.719 22.6621 201.006 22.9553C201.289 23.2432 201.529 23.5709 201.718 23.9281C201.91 24.2642 202.04 24.6326 202.102 25.0154C202.166 25.3755 202.122 25.747 201.974 26.0813C201.881 26.253 201.767 26.4389 201.646 26.6464L201.284 27.2902C201.013 27.7623 200.736 28.2631 200.458 28.7996C200.181 29.3361 199.918 29.8654 199.669 30.3804C199.42 30.8955 199.213 31.3819 199.028 31.8111C198.872 32.1833 198.757 32.5721 198.687 32.9701C198.688 32.9924 198.683 33.0144 198.673 33.0344C198.663 33.0544 198.648 33.0715 198.63 33.0844L198.538 33.156H198.794C199.574 32.8881 200.298 32.4756 200.928 31.9399C201.644 31.3507 202.313 30.7049 202.927 30.0085C203.567 29.2932 204.193 28.5134 204.791 27.6979C205.388 26.8824 205.95 26.0813 206.491 25.323C206.65 25.1625 206.798 24.9904 206.932 24.808C207.025 24.6578 207.124 24.5004 207.224 24.3287C207.323 24.157 207.501 24.1785 207.772 24.2357C208.047 24.3043 208.307 24.4231 208.54 24.5862C208.774 24.7462 208.973 24.9532 209.123 25.1942C209.196 25.2787 209.236 25.3866 209.236 25.4983C209.236 25.6099 209.196 25.7179 209.123 25.8023L208.063 27.233V27.2687C207.017 28.6994 205.929 30.1301 204.791 31.5608C203.676 32.981 202.415 34.2783 201.027 35.4308C200.807 35.6239 200.53 35.8385 200.202 36.0746C199.852 36.3174 199.486 36.5372 199.107 36.7327C198.69 36.9447 198.254 37.1172 197.805 37.2478C197.343 37.3846 196.862 37.4402 196.382 37.4123C195.9 37.4121 195.426 37.2972 194.997 37.0771C194.568 36.8571 194.196 36.5381 193.913 36.1461C193.424 35.3154 193.238 34.3389 193.387 33.3849C192.352 34.3652 191.239 35.2576 190.058 36.0531C189.112 36.7346 187.996 37.1361 186.835 37.212C186.038 37.1606 185.272 36.8855 184.623 36.418C184.098 36.0167 183.679 35.494 183.399 34.8943C183.129 34.2973 182.974 33.6539 182.944 32.9986C182.904 32.3663 182.923 31.7317 183.001 31.1029C183.073 30.6535 183.183 30.2109 183.328 29.7796C183.622 28.744 184.027 27.7438 184.537 26.7967C185.127 25.6715 185.798 24.5909 186.543 23.5633C187.34 22.469 188.202 21.425 189.126 20.4373C190.035 19.453 191.033 18.555 192.107 17.7548C193.096 17.0031 194.171 16.3716 195.308 15.8734C196.327 15.4154 197.428 15.172 198.545 15.1581C198.85 15.1561 199.154 15.1801 199.455 15.2296C199.777 15.2843 200.095 15.3583 200.409 15.4513C200.943 15.6103 201.412 15.9391 201.746 16.3884C202.061 16.839 202.273 17.3547 202.365 17.8978C202.48 18.5033 202.518 19.1211 202.479 19.7363C202.448 20.3988 202.357 21.0572 202.208 21.7034ZM197.94 21.7034C198.209 21.5783 198.513 21.5504 198.801 21.6247C199.155 21.7118 199.495 21.8491 199.811 22.0325C199.754 21.9836 199.712 21.9187 199.692 21.846C199.672 21.7734 199.674 21.6963 199.697 21.6247C199.719 21.5403 199.719 21.4515 199.697 21.3672C199.68 21.2702 199.68 21.1709 199.697 21.0739C199.726 20.8175 199.741 20.5595 199.74 20.3013C199.736 20.0587 199.697 19.8178 199.626 19.586C199.562 19.3641 199.436 19.1655 199.263 19.0138C199.058 18.8567 198.81 18.7667 198.552 18.7562C197.544 18.7685 196.568 19.11 195.77 19.7291C194.757 20.4676 193.837 21.3275 193.031 22.29C192.144 23.327 191.343 24.4347 190.634 25.602C189.993 26.6263 189.425 27.6948 188.934 28.7996C188.79 29.1277 188.666 29.4646 188.564 29.8082C188.446 30.2011 188.36 30.603 188.308 31.0099C188.26 31.2623 188.236 31.5186 188.237 31.7754C188.23 31.9966 188.287 32.2151 188.4 32.4049C188.457 32.4903 188.531 32.5635 188.616 32.62C188.702 32.6765 188.797 32.7152 188.898 32.7339C189.203 32.7798 189.514 32.7553 189.809 32.6624C190.335 32.4809 190.819 32.1937 191.231 31.8183C191.786 31.3533 192.377 30.8026 193.003 30.1802C193.629 29.5579 194.234 28.8854 194.831 28.1772C195.429 27.469 195.934 26.8253 196.346 26.2602C196.716 25.5448 197.058 24.8295 197.357 24.1141C197.62 23.5398 197.834 22.9438 197.997 22.3329L197.94 21.7034Z" class="color-blue"/>
<path d="M223.316 27.0686C222.533 28.1774 221.587 29.3935 220.47 30.7311C219.31 32.1219 218.044 33.4205 216.685 34.6154C215.948 35.2429 215.139 35.7785 214.274 36.2106C213.588 36.5547 212.874 36.8395 212.14 37.0619C211.559 37.2287 210.963 37.3388 210.361 37.3909C209.835 37.3909 209.429 37.4481 209.137 37.4481C207.238 37.4481 205.865 36.8902 205.018 35.7886C204.172 34.6869 203.88 33.1776 204.122 31.2677C204.359 29.5542 204.899 27.8971 205.716 26.3747C206.723 24.5289 207.915 22.7912 209.273 21.1884C209.898 20.4874 210.571 19.8301 211.286 19.2213C212.11 18.5071 212.99 17.8612 213.918 17.2899C214.861 16.7075 215.862 16.2279 216.906 15.8592C217.86 15.5076 218.87 15.3331 219.887 15.3442C220.314 15.3273 220.739 15.4103 221.129 15.5865C221.519 15.7627 221.863 16.0275 222.135 16.3599C222.391 16.7263 222.565 17.1449 222.644 17.5861C222.723 18.0273 222.704 18.4804 222.59 18.9137C222.405 19.9896 221.952 21.0009 221.274 21.8538C221.043 22.1355 220.729 22.3359 220.378 22.426C220.248 22.4615 220.112 22.4685 219.979 22.4462C219.847 22.424 219.72 22.3732 219.609 22.2973C219.382 22.1196 219.225 21.8658 219.168 21.5819C219.089 21.2137 219.121 20.8299 219.261 20.4803C219.529 20.1402 219.706 19.736 219.773 19.3071C219.789 19.2597 219.792 19.2089 219.782 19.1598C219.772 19.1107 219.749 19.0652 219.716 19.0281C219.659 18.9637 219.531 18.9637 219.332 19.0281C218.267 19.2708 217.273 19.7607 216.429 20.4588C215.446 21.2336 214.545 22.1086 213.74 23.0698C212.923 24.0288 212.188 25.0554 211.542 26.1386C210.992 27.0377 210.516 27.9802 210.119 28.957L209.714 30.3877C209.666 30.7481 209.642 31.1114 209.642 31.475C209.64 31.8108 209.683 32.1454 209.771 32.4694C209.849 32.7625 209.985 33.0371 210.169 33.2777C210.347 33.5073 210.598 33.6688 210.88 33.7355L210.802 33.6997C211.371 33.8165 211.96 33.7795 212.509 33.5925C213.285 33.3459 214.022 32.9919 214.701 32.5409C215.592 31.9614 216.43 31.3031 217.205 30.5737C218.155 29.6906 219.035 28.7339 219.837 27.7123C220.306 27.1258 220.747 26.5178 221.174 25.8954L222.398 24.1071C222.509 23.964 222.647 23.8446 222.805 23.7561C222.963 23.6677 223.136 23.6119 223.316 23.592C223.624 23.5605 223.934 23.639 224.191 23.8138C224.309 23.896 224.41 24.0021 224.485 24.1252C224.561 24.2483 224.611 24.3858 224.632 24.5291C224.653 24.9527 224.51 25.3681 224.233 25.688L223.316 27.0686Z" class="color-blue"/>
<path d="M240.396 29.3146C239.934 29.9513 239.322 30.7453 238.568 31.6323C237.791 32.5613 236.962 33.4451 236.085 34.2791C235.234 35.0954 234.307 35.8283 233.318 36.468C232.537 37.0175 231.616 37.3304 230.664 37.3694C230.178 37.3655 229.696 37.2734 229.241 37.0975C228.79 36.9202 228.396 36.6207 228.103 36.232C227.786 35.7766 227.581 35.2519 227.506 34.7011C227.395 33.9607 227.424 33.2061 227.591 32.4764C227.762 31.749 227.976 31.0324 228.231 30.3304C228.487 29.6151 228.808 28.8997 229.185 28.0842C229.562 27.2688 229.996 26.4462 230.486 25.5305C230.977 24.6149 231.532 23.5777 232.165 22.4188C232.435 21.979 232.673 21.5199 232.877 21.0453C233.031 20.7086 233.147 20.356 233.225 19.9938L231.468 21.5032C230.522 22.29 229.633 23.084 228.822 23.8924C228.011 24.7007 227.164 25.5734 226.311 26.5034C225.435 28.12 224.632 29.751 223.899 31.382C223.174 32.9984 222.586 34.6735 222.142 36.3893C222.049 36.6612 221.793 36.7828 221.373 36.7613C220.924 36.7245 220.486 36.6057 220.079 36.4108C219.637 36.2108 219.229 35.9429 218.869 35.6168C218.718 35.5093 218.594 35.3667 218.509 35.2011C218.423 35.0356 218.379 34.8519 218.378 34.6654C218.707 33.1202 219.163 31.6054 219.744 30.1373C220.357 28.5842 221.048 27.0633 221.814 25.5806C222.597 24.0545 223.439 22.5332 224.34 21.0167C225.243 19.493 226.14 17.9908 227.043 16.4886L228.509 14.1351C229.068 13.1813 229.623 12.2275 230.173 11.2738C230.721 10.3009 231.248 9.35665 231.746 8.4124C232.244 7.46815 232.706 6.58111 233.168 5.70839C233.631 4.83568 233.958 4.03451 234.25 3.30486C234.465 3.2039 234.699 3.15161 234.936 3.15161C235.173 3.15161 235.408 3.2039 235.623 3.30486C236.16 3.52386 236.645 3.85549 237.046 4.27771C237.471 4.71575 237.803 5.23674 238.02 5.80855C238.241 6.34448 238.241 6.94658 238.02 7.48251C237.849 7.84733 237.558 8.37666 237.159 9.06338C236.761 9.75011 236.299 10.494 235.786 11.3596C235.274 12.2252 234.733 13.0908 234.157 14.0136C233.581 14.9364 233.033 15.809 232.493 16.6388L231.874 17.5973C232.663 17.032 233.501 16.5389 234.378 16.1238C235.165 15.7425 236.013 15.5005 236.882 15.4084C237.265 15.4285 237.626 15.5948 237.892 15.8734C238.235 16.2012 238.525 16.5799 238.753 16.9965C238.997 17.4398 239.156 17.925 239.222 18.4272C239.306 18.8845 239.257 19.3566 239.08 19.7863C238.447 21.0382 237.821 22.2113 237.216 23.2987L235.637 26.1171C235.253 26.8324 234.926 27.4333 234.563 28.0127C234.2 28.5922 233.937 29.1573 233.681 29.7224C233.425 30.2875 233.197 30.8598 232.969 31.4464C232.742 32.033 232.571 32.6767 232.4 33.3635C232.468 33.2715 232.556 33.1958 232.656 33.1418C233.621 32.6147 234.527 31.9865 235.36 31.2676C236.609 30.2034 237.737 29.0039 238.724 27.6909C239.045 27.2974 239.343 26.9182 239.621 26.5463C239.898 26.1743 240.176 25.831 240.446 25.4447L241.157 24.3788C241.25 24.2572 241.435 24.2286 241.705 24.2858C241.976 24.349 242.23 24.4684 242.452 24.6363C242.678 24.7953 242.865 25.0031 243 25.2444C243.067 25.3312 243.104 25.4382 243.104 25.5484C243.104 25.6586 243.067 25.7656 243 25.8524V25.7737L240.51 29.3075L240.396 29.3146Z" class="color-blue"/>
</g>
<defs>
<style>.color-blue{fill:#2EA6DF;}.color-magenta{fill:#EF49C1;}</style>
<clipPath id="clip0_1_692">
<rect width="243" height="63" fill="black"/>
</clipPath>
</defs>
</svg>